<?xml version="1.0" standalone="no"?>
<!DOCTYPE svg PUBLIC "-//W3C//DTD SVG 20010904//EN"
 "http://www.w3.org/TR/2001/REC-SVG-20010904/DTD/svg10.dtd">
<svg version="1.0" xmlns="http://www.w3.org/2000/svg"
 width="1000.000000pt" height="1000.000000pt" viewBox="0 0 1000.000000 1000.000000"
 preserveAspectRatio="xMidYMid meet">
<metadata>
Created by potrace 1.16, written by Peter Selinger 2001-2019
</metadata>
<g transform="translate(0.000000,1000.000000) scale(0.100000,-0.100000)"
fill="#000000" stroke="none">
<path d="M4623 9116 c-94 -30 -126 -64 -159 -171 -10 -33 -36 -87 -59 -120
-22 -33 -65 -109 -95 -170 -54 -107 -55 -111 -58 -208 -4 -90 -2 -101 18 -122
31 -33 107 -63 185 -74 80 -12 115 -38 115 -85 0 -43 -29 -206 -41 -228 -11
-21 -73 -25 -129 -7 -19 5 -102 17 -185 25 -82 8 -185 23 -227 34 -146 38
-373 138 -508 224 -146 94 -276 152 -405 181 -44 10 -138 49 -252 105 -100 50
-187 90 -193 90 -13 0 -85 36 -120 60 -14 10 -47 21 -75 25 -27 4 -63 13 -80
20 -41 19 -247 55 -315 55 -30 0 -106 7 -169 15 -87 12 -132 13 -195 5 -53 -6
-118 -6 -191 0 -60 5 -125 7 -143 4 l-33 -7 56 -37 c35 -23 52 -40 45 -45 -8
-5 -6 -11 7 -20 17 -13 16 -16 -17 -43 l-35 -30 28 -13 c23 -11 39 -10 97 5
82 21 217 25 310 8 49 -9 73 -9 103 0 27 8 41 8 45 1 4 -6 16 -12 27 -14 34
-7 22 -33 -25 -56 -48 -25 -54 -32 -65 -80 -6 -29 -4 -33 14 -33 26 0 118 56
131 80 12 23 89 49 167 57 51 5 66 2 90 -14 15 -11 51 -32 80 -47 28 -14 102
-59 162 -100 218 -147 358 -231 486 -292 75 -36 164 -88 210 -124 82 -62 256
-154 400 -210 44 -17 154 -68 245 -113 194 -96 210 -113 210 -210 0 -39 -9
-87 -26 -136 -31 -88 -29 -98 30 -228 24 -54 49 -116 56 -138 7 -22 21 -51 30
-65 9 -14 27 -52 39 -85 12 -33 35 -83 51 -111 27 -48 47 -130 65 -267 8 -58
-23 -162 -62 -208 -35 -42 -66 -55 -165 -72 -47 -8 -99 -21 -114 -29 -31 -14
-43 -50 -24 -73 8 -10 7 -16 -8 -27 -10 -7 -29 -35 -43 -63 -20 -42 -36 -58
-98 -96 -45 -27 -85 -60 -100 -83 -19 -29 -47 -49 -120 -85 -171 -86 -262
-123 -299 -123 -53 0 -71 -10 -137 -72 -32 -31 -70 -59 -84 -63 -14 -3 -66
-26 -115 -50 -49 -23 -95 -43 -102 -43 -20 0 -179 -81 -261 -131 -39 -25 -91
-51 -115 -58 -24 -8 -101 -33 -173 -56 -128 -43 -517 -133 -665 -156 -41 -6
-137 -22 -212 -36 -75 -13 -152 -24 -170 -25 -18 0 -55 -7 -81 -15 -39 -12
-60 -13 -105 -5 -32 6 -102 9 -157 7 -346 -15 -571 -50 -756 -121 -64 -24
-121 -44 -127 -44 -12 0 -32 -53 -32 -84 0 -44 22 -97 46 -113 23 -15 33 -15
132 1 147 22 359 37 407 27 22 -4 57 -20 78 -34 21 -14 47 -29 58 -32 38 -13
126 16 231 76 91 51 109 58 131 50 22 -9 231 -14 622 -15 211 -1 474 13 559
29 50 9 117 28 150 42 97 42 127 39 200 -15 33 -25 68 -53 76 -62 8 -10 37
-20 64 -24 l48 -6 -17 26 c-22 34 -13 54 25 54 16 0 53 9 82 20 29 11 60 20
70 20 9 0 45 13 80 30 34 16 73 30 85 30 12 0 24 4 27 9 17 26 245 40 253 15
2 -6 -135 -93 -304 -194 -169 -100 -309 -184 -311 -185 -4 -4 17 -85 22 -85
16 0 75 32 79 43 8 22 71 47 116 47 31 0 48 7 74 30 19 16 38 30 43 30 4 0 15
6 23 14 9 8 64 42 124 76 78 45 113 60 130 55 20 -6 20 -4 -6 19 -27 25 -29
46 -4 46 7 0 41 14 76 30 36 17 70 29 77 26 7 -3 20 4 30 15 9 10 29 19 44 19
14 0 48 7 74 16 40 14 55 14 87 5 l39 -12 -31 -60 c-16 -33 -68 -123 -115
-200 -125 -205 -178 -315 -229 -470 -25 -76 -45 -145 -45 -155 0 -27 44 -134
55 -133 6 0 26 20 45 44 56 72 64 60 25 -37 l-25 -62 27 -29 28 -28 13 30 c14
36 28 39 58 10 26 -24 48 -17 39 12 -4 11 -1 26 5 34 16 20 3 54 -26 65 -30
12 -30 27 -2 57 18 20 19 23 5 23 -9 0 -17 6 -17 13 0 26 21 87 30 87 5 0 7
12 4 28 -4 19 1 36 16 55 19 24 28 28 64 25 33 -2 41 0 41 14 0 24 12 33 28
20 10 -8 17 -4 32 19 12 18 29 29 43 29 17 0 22 6 22 24 0 13 7 29 16 37 8 7
22 26 31 43 17 34 72 96 85 96 15 0 8 -45 -17 -98 -13 -28 -20 -52 -15 -52 16
0 11 -26 -8 -43 -10 -10 -25 -17 -34 -17 -16 0 -45 -46 -35 -56 3 -3 13 6 22
20 10 14 21 26 26 26 17 0 79 -69 69 -75 -6 -3 -10 -13 -10 -22 0 -9 3 -13 7
-10 10 11 43 -24 43 -45 0 -10 -10 -22 -22 -27 -13 -5 -32 -18 -42 -30 -11
-11 -23 -21 -28 -21 -36 0 -65 -121 -32 -134 11 -4 14 4 14 33 0 22 6 44 15
51 13 11 21 8 45 -15 17 -16 30 -34 30 -40 0 -6 15 -35 34 -65 l34 -55 8 29
c4 15 3 31 -2 35 -28 19 8 143 36 126 6 -3 10 1 10 9 0 18 15 21 25 6 3 -5 -4
-23 -16 -39 -23 -31 -23 -66 1 -66 8 0 16 10 18 22 4 25 55 73 78 73 19 0 30
-30 15 -39 -9 -6 -8 -11 3 -20 11 -9 16 -9 22 0 5 9 13 5 28 -14 16 -19 27
-25 44 -21 26 7 27 13 8 49 -14 27 -14 27 -25 6 -16 -29 -33 -27 -25 3 3 13 1
27 -5 30 -19 12 -13 46 8 46 11 0 23 5 26 10 10 16 35 -8 35 -33 0 -19 2 -19
29 7 17 17 31 23 35 17 4 -5 14 -7 22 -4 28 10 35 -19 13 -53 -13 -22 -18 -41
-13 -58 3 -15 2 -32 -4 -39 -5 -6 -10 -43 -10 -82 -1 -113 -24 -369 -35 -383
-5 -6 -21 -18 -36 -25 -33 -16 -34 -41 -1 -45 31 -5 58 -28 62 -55 5 -32 21
-29 43 6 19 30 24 32 69 29 27 -2 69 -1 93 3 37 5 43 9 37 23 -4 9 -7 24 -8
34 0 10 -12 18 -34 22 -45 7 -62 23 -62 56 0 59 42 276 57 292 9 10 18 40 21
68 3 36 9 51 22 55 16 5 16 10 -6 63 -33 81 -30 212 11 497 9 61 19 135 24
165 4 30 17 71 29 90 17 27 22 51 22 102 0 40 5 70 12 74 20 13 45 -33 52 -97
3 -34 13 -85 21 -113 8 -28 28 -109 45 -181 50 -215 127 -496 154 -563 15 -34
31 -86 37 -115 5 -28 14 -61 19 -72 4 -11 16 -50 25 -88 30 -117 93 -177 170
-163 40 8 45 20 13 37 -39 20 -67 51 -123 134 -30 46 -62 108 -74 147 -22 73
-115 732 -107 761 3 11 1 27 -3 36 -22 43 -32 94 -26 135 5 28 3 46 -4 50 -16
10 -13 72 4 86 9 7 13 21 10 31 -3 9 -1 20 5 24 16 10 12 45 -5 45 -17 0 -19
13 -5 38 5 9 12 47 15 85 6 57 9 67 26 67 10 0 19 -1 19 -3 0 -6 83 -236 129
-357 59 -155 111 -272 232 -519 91 -187 136 -266 125 -221 -4 14 -9 35 -12 47
-7 36 -43 113 -64 140 -11 14 -20 35 -20 47 0 11 -16 66 -36 121 -19 55 -39
118 -45 140 -5 22 -18 52 -29 66 -11 15 -16 35 -13 47 2 11 -5 42 -17 69 -12
26 -28 73 -36 103 -8 30 -44 115 -80 189 -35 73 -64 140 -64 147 0 16 40 39
49 28 3 -5 28 -43 55 -84 27 -41 76 -109 108 -150 36 -48 64 -95 74 -130 24
-80 202 -431 273 -536 33 -50 82 -115 108 -144 41 -45 48 -50 54 -34 14 36 9
64 -19 96 -16 18 -41 65 -56 103 -15 39 -34 80 -42 93 -8 12 -16 36 -17 52 -1
19 -9 31 -21 34 -28 7 -14 30 24 37 36 8 39 6 118 -90 19 -22 88 -78 154 -123
66 -46 141 -98 166 -115 49 -34 92 -40 92 -12 0 19 34 52 43 43 4 -4 13 -1 22
6 11 9 15 9 15 1 0 -7 5 -9 10 -6 6 3 10 19 10 34 0 15 5 32 11 38 7 7 1 17
-22 33 -28 21 -33 22 -43 8 -16 -22 -46 0 -46 34 0 14 -7 38 -15 54 -8 17 -11
32 -6 37 13 13 81 -12 81 -29 0 -11 4 -12 18 -5 13 7 48 3 118 -13 84 -20 104
-21 129 -11 28 11 34 10 65 -16 30 -25 35 -26 45 -12 11 14 14 14 36 0 38 -25
66 -12 71 32 l3 38 -85 23 c-105 28 -122 36 -98 45 15 6 15 10 3 39 -14 32
-13 34 28 73 23 23 62 54 87 70 91 57 117 83 144 142 35 78 61 183 52 207 -6
17 -14 12 -61 -39 -61 -65 -81 -70 -167 -37 -29 11 -62 17 -76 13 -19 -4 -23
-2 -20 12 2 13 -10 22 -52 37 -30 11 -68 21 -85 22 -35 3 -71 20 -103 49 -22
20 -23 20 -36 2 -13 -18 -15 -18 -41 -1 -15 10 -29 15 -32 12 -3 -3 -14 -1
-24 4 -12 7 -20 7 -24 0 -5 -8 -11 -7 -21 1 -10 8 -17 7 -29 -5 -9 -9 -18 -16
-20 -16 -3 0 -14 20 -25 45 -11 25 -25 45 -30 45 -6 0 -9 3 -8 8 0 4 -3 16 -7
26 -11 24 19 48 51 40 12 -3 25 -1 28 5 5 7 15 7 34 0 15 -6 72 -13 127 -14
92 -4 175 -18 200 -35 12 -8 57 -6 73 4 6 4 38 2 69 -4 105 -21 370 -13 401
12 8 7 16 7 25 0 12 -10 64 -9 127 3 21 4 75 -1 139 -13 57 -11 110 -18 117
-15 23 8 16 31 -13 45 -32 16 -32 31 0 98 15 30 28 44 38 42 23 -3 34 30 15
43 -10 8 -11 16 -5 28 6 10 6 23 -2 35 -9 14 -8 25 5 51 25 48 106 82 188 81
120 -1 272 15 298 32 14 9 54 22 90 29 36 7 88 23 116 35 28 12 89 32 135 43
46 11 122 34 169 51 130 48 266 82 360 89 47 3 94 11 105 17 11 6 90 28 175
48 85 20 181 43 212 51 32 8 84 15 117 15 53 0 72 7 197 70 77 38 155 79 174
90 19 11 51 20 70 20 29 0 39 6 53 30 16 26 17 38 8 87 -6 31 -11 58 -11 60 0
2 -12 15 -26 28 -25 23 -28 24 -56 9 -26 -13 -32 -13 -51 -1 -31 20 -77 30
-77 17 0 -6 -5 -8 -10 -5 -6 4 -8 11 -5 16 14 21 -52 6 -158 -35 -61 -25 -141
-51 -177 -60 -101 -23 -236 -75 -276 -107 -25 -20 -49 -29 -73 -29 -118 -2
-505 -21 -611 -31 -69 -6 -138 -11 -155 -11 -138 -2 -315 -31 -455 -74 -25 -8
-55 -14 -68 -14 -12 0 -48 -13 -80 -29 -111 -56 -226 -78 -315 -62 -53 10
-448 48 -557 54 -31 2 -35 6 -43 40 -5 20 -16 41 -26 46 -29 16 -262 52 -391
60 -166 12 -310 54 -390 115 -30 24 -101 68 -156 100 -124 69 -184 83 -310 70
-105 -11 -188 -3 -214 21 -10 9 -35 56 -56 104 -52 122 -51 139 30 434 9 32
32 97 51 143 20 47 33 89 30 94 -8 13 62 141 97 177 50 52 153 75 223 50 31
-11 98 -13 305 -11 284 3 351 6 585 31 83 8 175 14 205 12 94 -7 342 1 395 11
28 6 108 12 178 14 l128 3 52 -37 c56 -40 248 -140 269 -140 7 0 53 -20 102
-45 49 -24 92 -42 97 -40 4 3 13 21 19 40 11 33 28 44 44 28 4 -4 23 -6 43 -4
20 1 39 -2 42 -8 4 -6 42 -13 85 -16 44 -2 76 -2 73 1 -4 4 -41 19 -84 34
-214 77 -306 117 -300 133 5 14 110 11 140 -5 25 -13 243 -73 324 -88 109 -22
222 1 198 39 -3 6 -38 27 -77 47 -52 26 -68 38 -59 47 6 6 11 17 11 24 0 11
-21 14 -92 13 -109 -1 -141 6 -228 48 -36 18 -72 32 -80 32 -8 0 -24 7 -34 15
-11 8 -29 12 -42 9 -14 -4 -49 5 -91 24 -125 55 -231 72 -518 82 -166 6 -334
18 -465 35 -113 14 -234 25 -270 25 -36 0 -122 2 -192 6 l-127 6 -34 38 c-29
31 -37 50 -47 111 -6 41 -20 108 -30 149 -10 41 -21 96 -25 122 -11 84 -87
250 -161 354 -56 80 -104 121 -156 134 -92 22 -226 72 -276 103 -57 34 -97 77
-176 190 -89 125 -130 153 -265 182 -94 20 -455 20 -518 1z"/>
<path d="M7074 4531 c-27 -25 -83 -85 -123 -133 -40 -48 -82 -90 -93 -94 -14
-4 -17 -9 -9 -17 6 -6 11 -19 11 -29 0 -10 4 -18 8 -18 11 0 65 67 85 106 21
40 99 118 149 150 27 17 38 31 38 49 0 38 -12 36 -66 -14z"/>
<path d="M4047 3604 c-11 -14 -17 -28 -14 -30 3 -3 1 -21 -3 -40 -7 -31 -6
-34 14 -34 11 0 30 7 40 15 23 18 36 11 36 -18 0 -14 11 -28 31 -39 42 -24 49
-23 43 10 -4 19 1 40 15 63 12 19 21 39 21 45 0 13 -47 7 -56 -7 -7 -12 -54
-11 -54 1 0 6 -8 10 -18 10 -10 0 -22 11 -28 25 l-9 24 -18 -25z"/>
<path d="M3156 2809 c-115 -16 -210 -30 -212 -32 -2 -2 -23 -93 -47 -203 l-44
-199 -50 -3 c-50 -3 -51 -4 -58 -40 -3 -20 -8 -45 -11 -54 -5 -16 2 -18 46
-18 47 0 50 -1 45 -22 -3 -13 -47 -214 -97 -448 -90 -415 -92 -428 -93 -560 0
-125 2 -139 26 -190 49 -105 130 -158 254 -167 161 -12 305 45 433 173 46 45
85 77 87 71 30 -102 62 -155 115 -192 103 -71 265 -73 407 -4 52 26 167 134
198 187 22 36 35 41 35 14 0 -10 7 -42 16 -71 43 -145 210 -214 399 -166 103
27 165 63 249 147 43 43 79 78 81 78 1 0 7 -19 14 -42 60 -198 300 -257 551
-136 45 22 90 56 147 113 l82 81 16 -49 c34 -105 106 -173 207 -197 67 -17
188 -8 258 19 72 27 162 100 223 179 26 35 49 57 51 50 32 -117 40 -133 86
-179 56 -56 120 -79 219 -79 130 0 246 48 348 143 79 74 131 150 188 271 68
144 68 138 -5 134 l-62 -3 -23 -57 c-32 -79 -82 -145 -131 -174 -56 -33 -142
-34 -179 -1 -49 42 -46 66 75 637 61 289 113 533 116 543 5 16 -8 17 -212 15
l-218 -3 -103 -485 c-64 -302 -113 -509 -129 -548 -30 -70 -99 -153 -142 -171
-16 -7 -49 -11 -72 -9 -34 2 -48 9 -64 31 -33 45 -26 121 39 422 32 149 81
380 110 515 l52 245 -210 3 c-116 1 -212 0 -215 -2 -2 -3 -47 -207 -98 -453
-52 -246 -97 -460 -100 -475 l-6 -28 62 0 c59 0 61 -1 54 -22 -12 -41 -70
-162 -101 -212 l-30 -48 -7 43 c-3 24 -2 78 4 119 13 102 13 102 -14 43 -31
-66 -96 -136 -150 -163 -60 -29 -146 -28 -181 3 -47 41 -45 60 66 581 l103
485 90 3 c100 3 92 -3 110 91 l7 37 -91 0 c-82 0 -91 2 -86 18 12 40 96 435
93 438 -5 5 -426 -52 -433 -58 -4 -4 -94 -391 -94 -405 0 -2 -22 -3 -49 -3
-49 0 -49 0 -55 -37 -4 -21 -9 -46 -12 -55 -5 -15 2 -18 40 -18 25 0 47 -3 49
-7 2 -5 -4 -44 -14 -88 -26 -111 -159 -735 -159 -743 0 -4 30 -5 66 -4 65 4
66 3 59 -20 -12 -40 -93 -207 -117 -240 l-22 -32 -8 34 c-5 19 -5 67 -2 105
l6 70 -40 -62 c-53 -80 -107 -113 -186 -113 -50 0 -61 4 -87 29 -23 24 -29 38
-29 73 0 35 55 304 214 1056 l14 62 -214 0 c-194 0 -213 -2 -218 -17 -3 -10
-50 -232 -106 -493 -113 -530 -128 -577 -210 -654 -118 -110 -230 -64 -216 89
3 33 54 288 114 568 l108 507 -212 0 -212 0 -12 -52 c-6 -29 -49 -235 -96
-458 -47 -223 -88 -415 -91 -427 -5 -22 -2 -23 57 -23 59 0 61 -1 55 -22 -13
-42 -82 -185 -108 -223 l-26 -38 -7 28 c-7 27 2 169 12 202 3 10 -8 -7 -26
-37 -63 -110 -146 -172 -234 -174 -86 -1 -127 39 -125 122 0 20 46 248 102
507 l102 470 91 3 91 3 10 54 10 55 -89 0 c-48 0 -88 4 -88 9 0 7 79 371 95
439 3 12 2 22 -2 21 -5 0 -102 -14 -217 -30z"/>
</g>
</svg>
